<svg role="img" viewBox="0 0 24 24" xmlns="http://www.w3.org/2000/svg" id="Apacheairflow--Streamline-Simple-Icons">
  <desc>
    Apacheairflow Streamline Icon: https://streamlinehq.com
  </desc>
  <title>Apache Airflow</title>
  <path d="m17.195 16.822 4.002 -4.102C23.55 10.308 23.934 5.154 24 0.43a0.396 0.396 0 0 0 -0.246 -0.373 0.392 0.392 0 0 0 -0.437 0.09l-6.495 6.658 -4.102 -4.003C10.309 0.45 5.154 0.066 0.43 0H0.423a0.397 0.397 0 0 0 -0.277 0.683l6.658 6.494 -4.003 4.103C0.45 13.692 0.065 18.846 0 23.57a0.398 0.398 0 0 0 0.683 0.282l6.494 -6.657 3.934 3.837 0.17 0.165c2.41 2.353 7.565 2.737 12.288 2.803h0.006a0.397 0.397 0 0 0 0.277 -0.683l-6.657 -6.495zm-0.409 -9.476c0.04 0.115 0.05 0.24 0.031 0.344 -0.17 0.96 -1.593 2.538 -4.304 3.87a0.597 0.597 0 0 0 -0.08 -0.079c1.432 -3.155 1.828 -5.61 1.175 -7.322l3.058 2.984 0.12 0.203zm-0.131 9.44a0.73 0.73 0 0 1 -0.347 0.031c-0.96 -0.171 -2.537 -1.594 -3.87 -4.307a0.656 0.656 0 0 0 0.08 -0.078l-0.001 0.001c3.155 1.432 5.61 1.83 7.324 1.174l-2.969 3.043M23.568 0.392a0.05 0.05 0 0 1 0.052 -0.011c0.018 0.006 0.03 0.024 0.029 0.043 -0.065 4.655 -0.437 9.726 -2.703 12.05 -1.53 1.565 -4.326 1.419 -8.283 -0.377 0.006 -0.037 0.021 -0.07 0.02 -0.108 0 -0.044 -0.017 -0.082 -0.026 -0.123 2.83 -1.39 4.315 -3.037 4.506 -4.115 0.057 -0.322 -0.009 -0.542 -0.102 -0.688l6.507 -6.67V0.392zM0.393 0.43A0.045 0.045 0 0 1 0.382 0.38C0.39 0.36 0.403 0.343 0.425 0.35c4.655 0.065 9.727 0.438 12.05 2.703l0.002 0.002c1.56 1.527 1.415 4.323 -0.379 8.28 -0.033 -0.005 -0.062 -0.02 -0.097 -0.02h-0.008c-0.045 0.001 -0.084 0.019 -0.126 0.027 -1.39 -2.83 -3.037 -4.314 -4.115 -4.506 -0.323 -0.057 -0.542 0.01 -0.688 0.103L0.393 0.43zm11.94 11.563a0.331 0.331 0 0 1 -0.327 0.335H12a0.332 0.332 0 0 1 -0.004 -0.661c0.172 0.016 0.333 0.144 0.335 0.326h0.002zm-5.12 4.661a0.722 0.722 0 0 1 -0.03 -0.345c0.17 -0.96 1.595 -2.54 4.309 -3.873 0.013 0.016 0.019 0.035 0.033 0.05 0.013 0.012 0.03 0.017 0.044 0.028 -1.434 3.158 -1.83 5.613 -1.177 7.326l-3.041 -2.967m-0.006 -9.659a0.735 0.735 0 0 1 0.345 -0.031c0.961 0.17 2.54 1.594 3.871 4.306a0.597 0.597 0 0 0 -0.079 0.08c-2.167 -0.983 -4.007 -1.484 -5.498 -1.484 -0.68 0 -1.289 0.103 -1.825 0.308L7.128 7.35M0.43 23.607c-0.018 0.018 -0.038 0.015 -0.052 0.01 -0.019 -0.007 -0.028 -0.021 -0.028 -0.043 0.065 -4.654 0.437 -9.725 2.703 -12.049 1.527 -1.565 4.325 -1.419 8.286 0.378 -0.006 0.035 -0.02 0.067 -0.02 0.104 0 0.043 0.018 0.083 0.026 0.124 -2.831 1.391 -4.317 3.04 -4.51 4.117 -0.057 0.322 0.01 0.542 0.103 0.688L0.43 23.607zm23.144 0.042c-4.655 -0.065 -9.726 -0.437 -12.05 -2.703l-0.005 -0.006c-1.56 -1.526 -1.412 -4.322 0.383 -8.279 0.033 0.005 0.064 0.02 0.098 0.02h0.009c0.043 0 0.08 -0.018 0.122 -0.027 1.39 2.832 3.036 4.317 4.115 4.51 0.083 0.014 0.16 0.021 0.23 0.021a0.776 0.776 0 0 0 0.45 -0.133l6.68 6.516c0.02 0.02 0.016 0.04 0.01 0.052a0.042 0.042 0 0 1 -0.042 0.029z" fill="#ffbd39" stroke-width="1"></path>
</svg>